<mxfile host="app.diagrams.net" modified="2024-05-29T15:01:14.988Z" agent="Mozilla/5.0 (Windows NT 10.0; Win64; x64) AppleWebKit/537.36 (KHTML, like Gecko) Chrome/125.0.0.0 Safari/537.36" etag="789wGj4HJ9oM5GgWkvyb" version="24.4.9" type="device">
  <diagram name="Страница — 1" id="odwd5Msu5g79Xpb44fG4">
    <mxGraphModel dx="1112" dy="1187" grid="0" gridSize="10" guides="1" tooltips="1" connect="1" arrows="1" fold="1" page="0" pageScale="1" pageWidth="827" pageHeight="1169" math="0" shadow="0">
      <root>
        <mxCell id="0" />
        <mxCell id="1" parent="0" />
        <mxCell id="pNbtkXdxR3CtDNVhKXWL-20" style="edgeStyle=none;curved=1;rounded=0;orthogonalLoop=1;jettySize=auto;html=1;entryX=0;entryY=0.5;entryDx=0;entryDy=0;fontSize=12;startSize=8;endSize=8;" edge="1" parent="1" source="pNbtkXdxR3CtDNVhKXWL-14" target="pNbtkXdxR3CtDNVhKXWL-16">
          <mxGeometry relative="1" as="geometry" />
        </mxCell>
        <mxCell id="pNbtkXdxR3CtDNVhKXWL-14" value="Расчет статистических показателей" style="rounded=1;whiteSpace=wrap;html=1;verticalAlign=top;" vertex="1" parent="1">
          <mxGeometry x="-90" y="-278" width="120" height="189" as="geometry" />
        </mxCell>
        <mxCell id="pNbtkXdxR3CtDNVhKXWL-3" value="средние значения" style="rounded=0;whiteSpace=wrap;html=1;" vertex="1" parent="1">
          <mxGeometry x="-69" y="-223" width="78" height="35" as="geometry" />
        </mxCell>
        <mxCell id="pNbtkXdxR3CtDNVhKXWL-4" value="медиана" style="rounded=0;whiteSpace=wrap;html=1;" vertex="1" parent="1">
          <mxGeometry x="-69" y="-179" width="78" height="35" as="geometry" />
        </mxCell>
        <mxCell id="pNbtkXdxR3CtDNVhKXWL-5" value="стандартное отклонение" style="rounded=0;whiteSpace=wrap;html=1;" vertex="1" parent="1">
          <mxGeometry x="-69" y="-134" width="78" height="35" as="geometry" />
        </mxCell>
        <mxCell id="pNbtkXdxR3CtDNVhKXWL-21" style="edgeStyle=none;curved=1;rounded=0;orthogonalLoop=1;jettySize=auto;html=1;entryX=0;entryY=0.5;entryDx=0;entryDy=0;fontSize=12;startSize=8;endSize=8;" edge="1" parent="1" source="pNbtkXdxR3CtDNVhKXWL-16" target="pNbtkXdxR3CtDNVhKXWL-18">
          <mxGeometry relative="1" as="geometry" />
        </mxCell>
        <mxCell id="pNbtkXdxR3CtDNVhKXWL-16" value="Определение отклонений от средних значений и выявление аномалий" style="rounded=1;whiteSpace=wrap;html=1;verticalAlign=middle;" vertex="1" parent="1">
          <mxGeometry x="82" y="-278" width="120" height="189" as="geometry" />
        </mxCell>
        <mxCell id="pNbtkXdxR3CtDNVhKXWL-22" style="edgeStyle=none;curved=1;rounded=0;orthogonalLoop=1;jettySize=auto;html=1;entryX=0;entryY=0.5;entryDx=0;entryDy=0;fontSize=12;startSize=8;endSize=8;" edge="1" parent="1" source="pNbtkXdxR3CtDNVhKXWL-18" target="pNbtkXdxR3CtDNVhKXWL-19">
          <mxGeometry relative="1" as="geometry" />
        </mxCell>
        <mxCell id="pNbtkXdxR3CtDNVhKXWL-18" value="Сравнение полученных данных с установленными нормативами и стандартами" style="rounded=1;whiteSpace=wrap;html=1;verticalAlign=middle;" vertex="1" parent="1">
          <mxGeometry x="252" y="-278" width="120" height="189" as="geometry" />
        </mxCell>
        <mxCell id="pNbtkXdxR3CtDNVhKXWL-19" value="Интерпретация полученных результатов" style="rounded=1;whiteSpace=wrap;html=1;verticalAlign=middle;" vertex="1" parent="1">
          <mxGeometry x="422" y="-278" width="120" height="189" as="geometry" />
        </mxCell>
      </root>
    </mxGraphModel>
  </diagram>
</mxfile>
